<svg viewBox="0 0 205.7 58.72" xmlns="http://www.w3.org/2000/svg"><g fill="#748525"><path d="m57.42 2.63v50.17h-11.22v2.64h13.86v-55.44h-60.06v55.44h13.86v-2.64h-11.22v-50.17z" fill-rule="evenodd"/><path d="m29.21 23.76a6 6 0 0 0 .06-.85v-.11a7.51 7.51 0 0 0 -2.6-6.13 8.2 8.2 0 0 0 -6-2.06 6.61 6.61 0 0 0 -4.76 2 7.11 7.11 0 0 0 -2.38 5.3 7.91 7.91 0 0 0 2.82 6.34 7.32 7.32 0 0 0 5.42 1.95h1.41c.76 0 2.35-.18 3.25-.19s.48 0 1.08 0c1.3 0 1.63.32 1.63.32l.11-.11s-.33-.32-.33-1.62a33.29 33.29 0 0 1 .22-4.34 3.44 3.44 0 0 0 .07-.5zm-.09.61v-.1c.01.08-.03.17 0 .1z"/><path d="m32.09 24.26a34.87 34.87 0 0 1 .21 4.34c0 1.3-.32 1.62-.32 1.62l.11.11s.32-.32 1.62-.32h1.09s2.49.19 3.25.19h1.41a7.35 7.35 0 0 0 5.42-1.95 7.93 7.93 0 0 0 2.82-6.34 7.15 7.15 0 0 0 -2.39-5.3 6.57 6.57 0 0 0 -4.76-2 8.18 8.18 0 0 0 -6 2.06 7.49 7.49 0 0 0 -2.55 6.13v.11a7.92 7.92 0 0 0 .05.85 2.1 2.1 0 0 0 .04.5zm0 0v.1z"/><path d="m29.16 38.24a33.15 33.15 0 0 1 -.22-4.33c0-1.3.33-1.63.33-1.63l-.11-.11s-.33.33-1.63.33h-1.08c-.9 0-2.49-.2-3.25-.2h-1.41a7.41 7.41 0 0 0 -5.42 1.95 8 8 0 0 0 -2.82 6.35 7.14 7.14 0 0 0 2.38 5.3 6.64 6.64 0 0 0 4.76 2 8.17 8.17 0 0 0 6-2.06 7.49 7.49 0 0 0 2.6-6.12v-.12a6.22 6.22 0 0 0 -.06-.86 3.64 3.64 0 0 0 -.07-.5zm0 0a.94.94 0 0 1 0-.09c-.07-.09-.03.01-.01.07z"/><path d="m32 38.74a8.27 8.27 0 0 0 -.05.86v.11a7.45 7.45 0 0 0 2.6 6.12 8.12 8.12 0 0 0 6 2.06 6.6 6.6 0 0 0 4.76-2 7.11 7.11 0 0 0 2.39-5.3 7.64 7.64 0 0 0 -2.7-6.25 7.81 7.81 0 0 0 -5.53-2.06h-1.41c-.76 0-2.35.19-3.25.2h-1.1c-1.3 0-1.62-.33-1.62-.33l-.11.11s.32.33.32 1.63a34.72 34.72 0 0 1 -.21 4.33 2.2 2.2 0 0 0 -.09.52zm.1-.6v.09c.02-.07.05-.17.03-.09z"/><path d="m31.87 53.42a17.25 17.25 0 0 0 .87-6.72 2.06 2.06 0 1 0 -4.12 0 1.77 1.77 0 0 0 0 .23 14.79 14.79 0 0 1 -.45 4.65 16.32 16.32 0 0 1 -1.9 3.77 1.62 1.62 0 0 0 -.2.28 2.1 2.1 0 0 0 -.27 1 2.06 2.06 0 0 0 2.06 2.06 2 2 0 0 0 1.54-.69 0 0 0 0 1 0 0 1.94 1.94 0 0 0 .23-.33 19.35 19.35 0 0 0 2.24-4.25z"/><path d="m87.05 29.3a3.72 3.72 0 0 1 .75 2.34 3.49 3.49 0 0 1 -1.62 3.09 8.27 8.27 0 0 1 -4.66 1.09h-8.23v-15.24h7.8a7.74 7.74 0 0 1 4.44 1.07 3.38 3.38 0 0 1 1.52 2.91 3.57 3.57 0 0 1 -.53 2 3.63 3.63 0 0 1 -1.52 1.31 4.25 4.25 0 0 1 2.05 1.43zm-9.49-5.61v2.94h3c1.45 0 2.18-.49 2.18-1.48s-.73-1.46-2.18-1.46zm5.88 7.47c0-1-.76-1.54-2.27-1.54h-3.61v3.09h3.61c1.51 0 2.27-.52 2.27-1.55z"/><path d="m93.38 35.11a7.72 7.72 0 0 1 -3-2.84 8.08 8.08 0 0 1 0-8.14 7.72 7.72 0 0 1 3-2.84 9.79 9.79 0 0 1 8.7 0 7.72 7.72 0 0 1 3 2.84 8.08 8.08 0 0 1 0 8.14 7.72 7.72 0 0 1 -3 2.84 9.79 9.79 0 0 1 -8.7 0zm6.44-3.11a3.89 3.89 0 0 0 1.48-1.53 5 5 0 0 0 0-4.56 3.89 3.89 0 0 0 -1.48-1.53 4.25 4.25 0 0 0 -4.18 0 3.83 3.83 0 0 0 -1.48 1.53 5 5 0 0 0 0 4.56 3.83 3.83 0 0 0 1.48 1.53 4.25 4.25 0 0 0 4.18 0z"/><path d="m123 20.58v15.24h-3.55l-6.74-8.12v8.12h-4.22v-15.24h3.51l6.73 8.12v-8.12z"/><path d="m129.37 35.11a7.81 7.81 0 0 1 0-13.82 9.76 9.76 0 0 1 8.69 0 7.81 7.81 0 0 1 0 13.82 9.76 9.76 0 0 1 -8.69 0zm6.44-3.1a4 4 0 0 0 1.48-1.53 5.08 5.08 0 0 0 0-4.56 4 4 0 0 0 -1.48-1.53 4.27 4.27 0 0 0 -4.19 0 4 4 0 0 0 -1.48 1.53 5.08 5.08 0 0 0 0 4.56 4 4 0 0 0 1.48 1.52 4.27 4.27 0 0 0 4.19 0z"/><path d="m144.45 20.58h4.32v11.82h7.23v3.42h-11.55z"/><path d="m160.85 35.11a7.81 7.81 0 0 1 0-13.82 9.76 9.76 0 0 1 8.69 0 7.82 7.82 0 0 1 3 2.84 8.08 8.08 0 0 1 0 8.14 7.82 7.82 0 0 1 -3 2.84 9.76 9.76 0 0 1 -8.69 0zm6.43-3.1a3.83 3.83 0 0 0 1.48-1.53 5 5 0 0 0 0-4.56 3.83 3.83 0 0 0 -1.48-1.53 4.25 4.25 0 0 0 -4.18 0 3.89 3.89 0 0 0 -1.48 1.53 5.08 5.08 0 0 0 0 4.56 3.89 3.89 0 0 0 1.48 1.52 4.25 4.25 0 0 0 4.18 0z"/><path d="m179 24h-4.68v-3.42h13.65v3.42h-4.66v11.82h-4.31z"/><path d="m192.67 35.11a7.82 7.82 0 0 1 -3-2.84 8.08 8.08 0 0 1 0-8.14 7.82 7.82 0 0 1 3-2.84 9.76 9.76 0 0 1 8.69 0 7.68 7.68 0 0 1 3 2.84 8.08 8.08 0 0 1 0 8.14 7.68 7.68 0 0 1 -3 2.84 9.76 9.76 0 0 1 -8.69 0zm6.44-3.1a3.89 3.89 0 0 0 1.48-1.53 5 5 0 0 0 0-4.56 3.89 3.89 0 0 0 -1.48-1.53 4.25 4.25 0 0 0 -4.18 0 3.83 3.83 0 0 0 -1.48 1.53 5 5 0 0 0 0 4.56 3.83 3.83 0 0 0 1.48 1.52 4.25 4.25 0 0 0 4.18 0z"/></g></svg>