<svg enable-background="new 0 0 193.4 55.8" viewBox="0 0 193.4 55.8" xmlns="http://www.w3.org/2000/svg"><g fill="#dc3f47"><path d="m85.5 25.1v3.3h-12.2v-15.2h12v3.3h-7.7v2.6h6.8v3.2h-6.8v2.8z"/><path d="m87.9 13.2h4.3v11.8h7.3v3.4h-11.6z"/><path d="m117.8 20.5h3.8v6.3c-.9.6-1.9 1.1-3 1.4s-2.2.5-3.4.5c-1.5 0-3-.3-4.3-1-1.2-.6-2.3-1.6-3-2.8s-1.1-2.7-1.1-4.1.4-2.9 1.1-4.1 1.8-2.2 3-2.8c1.4-.7 2.9-1 4.4-1 1.3 0 2.6.2 3.8.7 1.1.5 2.1 1.2 2.8 2.1l-2.8 2.5c-.9-1.1-2.3-1.7-3.7-1.7-1.2-.1-2.3.4-3.2 1.2-.8.8-1.2 2-1.2 3.2 0 .8.2 1.6.5 2.3.4.6.9 1.2 1.5 1.5.7.4 1.5.6 2.3.5.8 0 1.6-.2 2.3-.5z"/><path d="m127.7 27.7c-2.6-1.3-4.2-4-4.1-6.9-.1-2.9 1.5-5.6 4.1-6.9 2.7-1.4 6-1.4 8.7 0 1.2.7 2.3 1.6 3 2.8 1.5 2.5 1.5 5.6 0 8.1-.7 1.2-1.8 2.2-3 2.8-2.8 1.5-6 1.5-8.7.1zm6.4-3.1c.6-.4 1.1-.9 1.5-1.5.7-1.4.7-3.1 0-4.5-.3-.6-.9-1.2-1.5-1.5-1.3-.7-2.9-.7-4.2 0-.6.4-1.1.9-1.5 1.5-.7 1.4-.7 3.1 0 4.6.3.6.9 1.2 1.5 1.5 1.3.6 2.9.6 4.2-.1z"/><path d="m149.4 24.4h-2.4v4.1h-4.3v-15.3h7c1.2 0 2.5.2 3.6.7 1 .4 1.8 1.1 2.4 2s.9 1.9.8 3c.1 2.1-1.1 4-3 4.8l3.3 4.8h-4.6zm2.1-7.2c-.6-.4-1.3-.6-2-.6h-2.4v4.4h2.4c.7.1 1.4-.2 2-.6.5-.4.7-1 .7-1.6s-.3-1.2-.7-1.6z"/><path d="m158.9 13.2h7.2c1.5 0 3.1.3 4.4.9 1.2.6 2.3 1.5 3 2.7s1.1 2.6 1.1 4-.3 2.8-1.1 4c-.7 1.2-1.8 2.1-3 2.6-1.4.6-2.9 1-4.4.9h-7.2zm7 11.8c1.2.1 2.3-.3 3.1-1.1s1.3-1.9 1.2-3.1c.1-1.1-.4-2.3-1.2-3.1-.9-.8-2-1.2-3.1-1.1h-2.7v8.4z"/><path d="m180.2 27.7c-2.6-1.3-4.2-4-4.1-6.9-.1-2.9 1.5-5.6 4.1-6.9 2.7-1.4 6-1.4 8.7 0 1.2.7 2.3 1.6 3 2.8 1.5 2.5 1.5 5.6 0 8.1-.7 1.2-1.8 2.2-3 2.8-2.7 1.5-6 1.5-8.7.1zm6.5-3.1c.6-.4 1.1-.9 1.5-1.5.7-1.4.7-3.1 0-4.5-.3-.6-.9-1.2-1.5-1.5-1.3-.7-2.9-.7-4.2 0-.6.4-1.1.9-1.5 1.5-.7 1.4-.7 3.1 0 4.5.3.6.9 1.2 1.5 1.5 1.3.7 2.9.7 4.2 0z"/><path d="m73.2 33.6h4.1c1 0 1.9.2 2.8.6.8.4 1.4 1 1.9 1.8.9 1.6.9 3.5 0 5.1-.4.7-1.1 1.3-1.9 1.7-.9.4-1.8.6-2.8.6h-4.1zm4 8.6c.7 0 1.4-.1 2.1-.5.6-.3 1.1-.7 1.4-1.3s.5-1.3.5-1.9c0-.7-.2-1.3-.5-1.9s-.8-1-1.4-1.3-1.4-.5-2.1-.5h-2.6v7.4z"/><path d="m91.9 42.2v1.2h-7.1v-9.8h6.9v1.2h-5.5v3h4.9v1.2h-4.9v3.2z"/><path d="m97.9 33.6h1.4v8.6h5.3v1.2h-6.7z"/><path d="m112.5 41h-5.2l-1.1 2.5h-1.4l4.4-9.8h1.4l4.4 9.8h-1.5zm-.4-1.1-2.1-4.8-2.1 4.8z"/><path d="m127.1 34.5c1.4 1.3 1.5 3.5.2 4.8-.1.1-.1.1-.2.2-.9.7-1.9 1-3 .9h-2.4v3h-1.4v-9.8h3.8c1.1 0 2.2.3 3 .9zm-1 4.2c.9-.9.9-2.3.1-3.2 0 0-.1-.1-.1-.1-.6-.4-1.3-.6-2-.6h-2.4v4.4h2.4c.7.1 1.4-.1 2-.5z"/><path d="m136.8 43.4-2.1-3h-.6-2.4v3h-1.4v-9.8h3.8c1.1-.1 2.1.3 3 .9.7.6 1.1 1.5 1.1 2.5 0 .7-.2 1.4-.6 1.9-.4.6-1 1-1.6 1.2l2.3 3.3zm-.7-4.7c.5-.4.7-1 .7-1.6s-.2-1.2-.7-1.6c-.6-.4-1.3-.6-2-.6h-2.4v4.4h2.4c.7 0 1.4-.2 2-.6z"/><path d="m140.5 33.6h1.4v9.8h-1.4z"/><path d="m153.9 43.4v-7.1l-3.5 6h-.6l-3.6-5.9v7.1h-1.4v-9.8h1.2l4 6.9 4-6.9h1.1v9.8h-1.2z"/><path d="m158.2 33.6h1.4v9.8h-1.4z"/><path d="m164.5 34.8h-3.4v-1.2h8.1v1.2h-3.4v8.6h-1.4v-8.6z"/><path d="m170.7 33.6h1.4v9.8h-1.4z"/><path d="m183.5 33.6-4.3 9.8h-1.4l-4.3-9.8h1.5l3.5 8 3.6-8z"/><path d="m190.7 41h-5.2l-1.1 2.5h-1.4l4.4-9.8h1.4l4.4 9.8h-1.5zm-.5-1.1-2.1-4.8-2.1 4.8z"/><path clip-rule="evenodd" d="m57.3 2.5v50.2h-11v2.5h13.8v-55.2h-60.1v55.2h14v-2.5h-11.2v-50.2z" fill-rule="evenodd"/><path d="m45.2 41c-5 .5-10.1.5-14.9.5-6.2 0-11.5-.2-15.4-.5-.2-.9-.5-1.8-.7-2.8 3.7.2 9.2.5 16 .5 5 0 10.5-.2 15.6-.7 0 1.2-.2 2.1-.6 3m-8.1 9c-2.3.2-4.6.5-6.9.5-2.5 0-5 0-7.3-.5-1.6-.7-3.2-1.8-4.6-3.4 3.9.7 7.8.9 11.5.9s7.6-.5 11.2-1c-.7 1.4-2.3 2.6-3.9 3.5m-22.2-19.3c4.1-.2 9.4-.7 15.6-.7 5.5 0 10.3.2 15.1.7.2.9.5 1.8.7 2.8-5-.5-10.3-.7-16-.7-6.2 0-12.1.5-16.3.7.2-.9.4-1.9.9-2.8m6.9-9.2c2.8-.5 5.7-.5 8.7-.5 2.8 0 5.3.2 8 .5 1.4.9 2.8 2.1 3.9 3.4-8-1.6-16.3-1.6-24.3 0 .9-1.3 2.1-2.4 3.7-3.4m8-5.7c-10.8.2-19.5 9.2-19.3 20s8.9 19.5 19.7 19.5c10.8-.3 19.5-9 19.5-19.8-.2-10.7-9.1-19.5-19.9-19.7"/></g></svg>