<svg viewBox="0 0 195.17 56.66" xmlns="http://www.w3.org/2000/svg"><g fill="#eb6c20"><path d="m57.42 2.63v50.17h-11.22v2.64h13.86v-55.44h-60.06v55.44h13.86v-2.64h-11.22v-50.17z" fill-rule="evenodd"/><path d="m38.26 16.26c-.09.85-.16 1.48-.23 2.28l1.54-1a14.09 14.09 0 0 0 0 2.62 11.72 11.72 0 0 0 1 3.5 77 77 0 0 1 4 9.31c.51 1.3 1.1 2.56 1.56 3.89a2.39 2.39 0 0 1 -.82 2.85 3.22 3.22 0 0 1 -3.42.33 3 3 0 0 1 -1.13-1.55 1.44 1.44 0 0 0 -1.11-1 7.76 7.76 0 0 1 -3.65-2.44c-.61-.61-1.19-1.24-1.75-1.89a.86.86 0 0 0 -1.25-.16 4 4 0 0 0 -2.25 4.42 36.18 36.18 0 0 0 1.26 4.89 18.86 18.86 0 0 1 1.23 7.48 8.67 8.67 0 0 1 -3.5 6.42 2.88 2.88 0 0 1 -.54.37s-.42-.5-.47-.53l-9-9.48c-1.61-1.73-5.34-5.78-5.34-5.78a27.64 27.64 0 0 1 1.61-9.62 15.56 15.56 0 0 1 8.13-8.46 33.23 33.23 0 0 1 9.22-2.58 2.56 2.56 0 0 0 1.22-.63c.74-.7 1.38-1.53 2.11-2.23a9.6 9.6 0 0 1 1.58-1.01z"/><path d="m73.29 20.58h4.31v11.82h7.28v3.42h-11.59z"/><path d="m89.68 35.11a7.81 7.81 0 0 1 0-13.82 9.76 9.76 0 0 1 8.69 0 7.81 7.81 0 0 1 0 13.82 9.76 9.76 0 0 1 -8.69 0zm6.44-3.11a3.89 3.89 0 0 0 1.48-1.53 5.08 5.08 0 0 0 0-4.56 3.89 3.89 0 0 0 -1.48-1.53 4.27 4.27 0 0 0 -4.19 0 4 4 0 0 0 -1.48 1.53 5.08 5.08 0 0 0 0 4.56 4 4 0 0 0 1.48 1.53 4.27 4.27 0 0 0 4.19 0z"/><path d="m107.79 24h-4.68v-3.42h13.66v3.42h-4.66v11.82h-4.32z"/><path d="m121.51 35.11a7.68 7.68 0 0 1 -3-2.84 8.08 8.08 0 0 1 0-8.14 7.68 7.68 0 0 1 3-2.84 9.76 9.76 0 0 1 8.69 0 7.72 7.72 0 0 1 3 2.84 8 8 0 0 1 0 8.14 7.72 7.72 0 0 1 -3 2.84 9.76 9.76 0 0 1 -8.69 0zm6.43-3.1a3.83 3.83 0 0 0 1.48-1.53 5 5 0 0 0 0-4.56 3.83 3.83 0 0 0 -1.48-1.53 4.25 4.25 0 0 0 -4.18 0 3.89 3.89 0 0 0 -1.48 1.53 5 5 0 0 0 0 4.56 3.89 3.89 0 0 0 1.48 1.52 4.25 4.25 0 0 0 4.18 0z"/><path d="m139.62 24h-4.69v-3.42h13.66v3.42h-4.66v11.82h-4.31z"/><path d="m151.72 34.28a7 7 0 0 1 -1.88-5.28v-8.42h4.31v8.32c0 2.44 1 3.66 2.9 3.66s2.87-1.22 2.87-3.66v-8.32h4.25v8.42a7.07 7.07 0 0 1 -1.88 5.25 8.47 8.47 0 0 1 -10.57 0z"/><path d="m173.75 31.77h-2.35v4.05h-4.31v-15.24h7a8.61 8.61 0 0 1 3.59.68 5.14 5.14 0 0 1 3.18 5 5.07 5.07 0 0 1 -3 4.81l3.29 4.79h-4.62zm2.05-7.21a3 3 0 0 0 -2-.59h-2.4v4.47h2.4a3 3 0 0 0 2-.58 2 2 0 0 0 .68-1.64 2.09 2.09 0 0 0 -.68-1.66z"/><path d="m187.52 23.91v3.35h6.73v3.34h-6.73v5.22h-4.31v-15.24h12v3.33z"/></g></svg>