<svg viewBox="0 0 302.6 55.44" xmlns="http://www.w3.org/2000/svg"><g fill="#5975b5"><path d="m73.29 20.58h4.31v11.82h7.28v3.42h-11.59z"/><path d="m89.68 35.11a7.81 7.81 0 0 1 0-13.82 9.76 9.76 0 0 1 8.69 0 7.81 7.81 0 0 1 0 13.82 9.76 9.76 0 0 1 -8.69 0zm6.44-3.11a3.89 3.89 0 0 0 1.48-1.53 5.08 5.08 0 0 0 0-4.56 3.89 3.89 0 0 0 -1.48-1.53 4.27 4.27 0 0 0 -4.19 0 4 4 0 0 0 -1.48 1.53 5.08 5.08 0 0 0 0 4.56 4 4 0 0 0 1.48 1.53 4.27 4.27 0 0 0 4.19 0z"/><path d="m107.79 24h-4.68v-3.42h13.66v3.42h-4.66v11.82h-4.32z"/><path d="m130.62 32.49v3.33h-12.24v-15.24h12v3.33h-7.69v2.57h6.77v3.22h-6.77v2.79z"/><path d="m139.68 31.77h-2.35v4.05h-4.33v-15.24h7a8.61 8.61 0 0 1 3.59.68 5.14 5.14 0 0 1 3.18 5 5.07 5.07 0 0 1 -3 4.81l3.29 4.79h-4.62zm2-7.21a3 3 0 0 0 -2-.59h-2.4v4.47h2.4a3 3 0 0 0 2-.58 2 2 0 0 0 .68-1.64 2.09 2.09 0 0 0 -.63-1.66z"/><path d="m149.14 20.58h4.31v15.24h-4.31zm2.94-4.58h4.14l-4.1 3.31h-3z"/><path d="m166.74 32.86h-6.45l-1.2 3h-4.4l6.73-15.24h4.25l6.75 15.24h-4.48zm-1.27-3.18-2-4.88-2 4.88z"/><path d="m194.49 20.58v15.24h-3.55l-6.73-8.12v8.12h-4.21v-15.24h3.55l6.73 8.12v-8.12z"/><path d="m207.76 32.86h-6.45l-1.2 3h-4.4l6.73-15.24h4.25l6.75 15.24h-4.44zm-1.27-3.18-2-4.88-2 4.88z"/><path d="m217.74 35.12a7.59 7.59 0 0 1 -3-2.82 8.24 8.24 0 0 1 0-8.19 7.55 7.55 0 0 1 3-2.83 9.11 9.11 0 0 1 4.31-1 9.24 9.24 0 0 1 3.76.74 7.31 7.31 0 0 1 2.79 2.14l-2.74 2.48a4.53 4.53 0 0 0 -3.6-1.79 4.39 4.39 0 0 0 -2.21.55 3.81 3.81 0 0 0 -1.5 1.53 5.17 5.17 0 0 0 0 4.56 3.81 3.81 0 0 0 1.5 1.53 4.39 4.39 0 0 0 2.21.55 4.53 4.53 0 0 0 3.6-1.79l2.74 2.48a7.21 7.21 0 0 1 -2.79 2.14 9.24 9.24 0 0 1 -3.76.74 9.11 9.11 0 0 1 -4.31-1.02z"/><path d="m230.52 20.58h4.31v15.24h-4.31z"/><path d="m241.25 35.11a7.81 7.81 0 0 1 0-13.82 9.76 9.76 0 0 1 8.69 0 7.81 7.81 0 0 1 0 13.82 9.76 9.76 0 0 1 -8.69 0zm6.44-3.1a4 4 0 0 0 1.48-1.53 5.08 5.08 0 0 0 0-4.56 4 4 0 0 0 -1.48-1.53 4.27 4.27 0 0 0 -4.19 0 3.89 3.89 0 0 0 -1.5 1.53 5.08 5.08 0 0 0 0 4.56 3.89 3.89 0 0 0 1.5 1.52 4.27 4.27 0 0 0 4.19 0z"/><path d="m270.84 20.58v15.24h-3.55l-6.73-8.12v8.12h-4.23v-15.24h3.55l6.74 8.12v-8.12z"/><path d="m284.11 32.86h-6.45l-1.2 3h-4.4l6.73-15.24h4.21l6.75 15.24h-4.48zm-1.27-3.18-2-4.88-2 4.88z"/><path d="m291 20.58h4.32v11.82h7.27v3.42h-11.59z"/><g fill-rule="evenodd"><path d="m57.42 2.63v50.17h-11.22v2.64h13.86v-55.44h-60.06v55.44h13.86v-2.64h-11.22v-50.17z"/><path d="m27.39 51.22v4.22h5.34v-4.22a18.07 18.07 0 0 0 5.27-1.63h-15.88a18.16 18.16 0 0 0 5.27 1.63z"/><path d="m33.17 18.76h-2.07a131.82 131.82 0 0 1 .62 13.17h3.28a45.39 45.39 0 0 0 -1.83-13.17z"/><path d="m22.8 18.76c-2.5 3.13-4.15 7.84-4.37 13.17h3.33c.15-5.33 1.33-10 3.11-13.17z"/><path d="m27 18.76a45.73 45.73 0 0 0 -1.87 13.17h3.27c0-5.33.27-10 .62-13.17z"/><path d="m48.34 31.93a18.25 18.25 0 0 0 -6.86-13.17h-2.29a20 20 0 0 1 5.49 13.17z"/><path d="m31.1 47.44h2.07a45.5 45.5 0 0 0 1.83-13.17h-3.28c-.03 5.32-.26 10.03-.62 13.17z"/><path d="m25.08 34.27a45.84 45.84 0 0 0 1.92 13.17h2c-.35-3.14-.59-7.85-.62-13.17z"/><path d="m18.43 34.27c.22 5.32 1.87 10 4.37 13.17h2.07c-1.78-3.14-3-7.85-3.11-13.17z"/><path d="m11.76 34.27a18.29 18.29 0 0 0 6.9 13.17h2.27a20.07 20.07 0 0 1 -5.49-13.17z"/><path d="m39.19 47.44h2.27a18.25 18.25 0 0 0 6.9-13.17h-3.68a20 20 0 0 1 -5.49 13.17z"/><path d="m35.25 47.44h2.08c2.5-3.14 4.14-7.85 4.36-13.17h-3.32c-.16 5.32-1.37 10.03-3.12 13.17z"/><path d="m37.33 18.76h-2.08c1.79 3.13 3 7.84 3.12 13.17h3.32c-.22-5.33-1.86-10.04-4.36-13.17z"/><path d="m20.93 18.76h-2.28a18.29 18.29 0 0 0 -6.87 13.17h3.66a20 20 0 0 1 5.49-13.17z"/><path d="m38.12 16.64a18.35 18.35 0 0 0 -16.18 0z"/></g></g></svg>