<svg viewBox="0 0 230.66 55.8" xmlns="http://www.w3.org/2000/svg"><g fill="#098342"><path d="m57.42 2.63v50.17h-11.22v2.64h13.86v-55.44h-60.06v55.44h13.86v-2.64h-11.22v-50.17z" fill-rule="evenodd"/><path d="m49 34s-9.81-.66-18.88-.66-18.71.55-18.71.55h-.23a19.81 19.81 0 0 0 -.21 2.79 18.55 18.55 0 0 0 .21 2.8c.05 0 9.83.66 18.88.66s18.71-.55 18.71-.55h.22a19.93 19.93 0 0 0 .22-2.91 21.39 21.39 0 0 0 -.21-2.68z"/><path d="m45.05 48.51a18.87 18.87 0 0 0 3.21-6.08s-11 .66-18.27.66-18.2-.69-18.22-.69a19 19 0 0 0 3.23 6.11h.06s5.15 1.6 14.94 1.6 15.05-1.6 15.05-1.6z"/><path d="m19.05 21.1a107.94 107.94 0 0 1 11-.76 102.9 102.9 0 0 1 11 .8l.16.07a19.14 19.14 0 0 0 -22.4 0z"/><path d="m30 53.1a102.64 102.64 0 0 1 -11-.8 19.16 19.16 0 0 0 22 0 106.68 106.68 0 0 1 -11 .8z"/><path d="m11.78 31.07s11-.66 18.27-.66 18.22.7 18.22.7a19.21 19.21 0 0 0 -3.21-6.19h-.06s-5.14-1.6-14.93-1.6-15.07 1.61-15.07 1.61a19.34 19.34 0 0 0 -3.22 6.17z"/><path d="m73.29 20.58h4.31v11.82h7.28v3.42h-11.59z"/><path d="m97 32.86h-6.48l-1.2 3h-4.4l6.73-15.24h4.25l6.75 15.24h-4.49zm-1.3-3.18-2-4.88-2 4.88z"/><path d="m120.77 21.26a5.33 5.33 0 0 1 2.36 2 5.4 5.4 0 0 1 .83 3 5.14 5.14 0 0 1 -3.19 4.93 8.61 8.61 0 0 1 -3.59.69h-2.66v4h-4.31v-15.3h7a8.78 8.78 0 0 1 3.56.68zm-1.85 6.6a2 2 0 0 0 .68-1.64 2.09 2.09 0 0 0 -.68-1.66 3 3 0 0 0 -2-.59h-2.4v4.47h2.4a3 3 0 0 0 2-.58z"/><path d="m132.71 31.77h-2.35v4.05h-4.31v-15.24h7a8.81 8.81 0 0 1 3.59.68 5.55 5.55 0 0 1 2.36 7.84 5.16 5.16 0 0 1 -2.19 1.9l3.29 4.79h-4.62zm2-7.21a3 3 0 0 0 -2-.59h-2.4v4.47h2.4a3 3 0 0 0 2-.58 2 2 0 0 0 .68-1.64 2.09 2.09 0 0 0 -.63-1.66z"/><path d="m142.17 20.58h4.31v15.24h-4.31z"/><path d="m163.32 35.82v-8.08l-3.92 6.58h-1.91l-3.95-6.32v7.86h-4v-15.28h3.55l5.36 8.8 5.23-8.8h3.55v15.24z"/><path d="m170.33 20.58h4.32v15.24h-4.32z"/><path d="m181 24h-4.68v-3.42h13.66v3.42h-4.66v11.82h-4.32z"/><path d="m191.55 20.58h4.31v15.24h-4.31z"/><path d="m214.36 20.58-6.54 15.24h-4.25l-6.51-15.24h4.66l4.14 9.93 4.23-9.93z"/><path d="m224.94 32.86h-6.44l-1.2 3h-4.4l6.73-15.24h4.25l6.75 15.24h-4.49zm-1.26-3.18-2-4.88-2 4.88z"/></g></svg>