<svg viewBox="0 0 222.09 55.44" xmlns="http://www.w3.org/2000/svg"><g fill="#c22021"><path d="m57.41 2.63v50.17h-11.23v2.64h13.86v-55.44h-60.06v55.44h13.86v-2.64h-11.22v-50.17z" fill-rule="evenodd"/><path d="m29.69 36.9-15.9 9.26 16.09 9.28 15.83-9.28zm4.81 9.77a6.65 6.65 0 0 1 -3.47.75l-3.41-.13 3.05 1.76-2.13 1.22-6.6-3.81 1.47-.85 7.26.17a2.94 2.94 0 0 0 1.49-.24c.42-.23.64-.68 0-1.06a2.48 2.48 0 0 0 -2.13 0l-2.13-1.22a7 7 0 0 1 6.28 0c2.17 1.24 1.47 2.9.32 3.41z"/><path d="m28.73 16.36-16.11 9.3v18.75l16.07-9.28v-18.77zm-8.79 19.5v-7.66l-1.32.8v-2.55l3.7-2.13v10.11z"/><path d="m46.84 25.58-16.07-9.22v18.86l16.07 9.28zm-6.06 10.92-1.68-3.75-1.71 1.81-2.74-1.56 3-3.38-3-6.7 2.94 1.7 1.51 3.38 1.49-1.68 2.93 1.68-3 3.26 3 6.85z"/><path d="m73.29 20.58h4.31v11.82h7.28v3.42h-11.59z"/><path d="m97 32.86h-6.48l-1.2 3h-4.4l6.73-15.24h4.25l6.75 15.24h-4.49zm-1.3-3.18-2-4.88-2 4.88z"/><path d="m127.16 37.59a5.11 5.11 0 0 1 -1.86 1.41 6 6 0 0 1 -2.41.49 6.86 6.86 0 0 1 -4.35-1.41 17.76 17.76 0 0 1 -2.32-2.1 8.41 8.41 0 0 1 -3.53-1.42 7.53 7.53 0 0 1 -2.4-2.74 7.73 7.73 0 0 1 -.87-3.64 7.6 7.6 0 0 1 1.11-4.07 7.72 7.72 0 0 1 3-2.84 9.79 9.79 0 0 1 8.7 0 7.72 7.72 0 0 1 3 2.84 7.78 7.78 0 0 1 -4.08 11.43 2.81 2.81 0 0 0 .86.68 2.17 2.17 0 0 0 .92.19 3.12 3.12 0 0 0 2.31-1.06zm-12.83-7.11a3.83 3.83 0 0 0 1.48 1.52 4.25 4.25 0 0 0 4.19 0 3.89 3.89 0 0 0 1.48-1.53 5 5 0 0 0 0-4.56 3.89 3.89 0 0 0 -1.48-1.52 4.25 4.25 0 0 0 -4.18 0 3.83 3.83 0 0 0 -1.48 1.53 5 5 0 0 0 0 4.56z"/><path d="m130.39 34.28a7.07 7.07 0 0 1 -1.88-5.28v-8.42h4.31v8.32q0 3.66 2.9 3.66c1.92 0 2.87-1.22 2.87-3.66v-8.32h4.25v8.42a7.07 7.07 0 0 1 -1.84 5.28 8.47 8.47 0 0 1 -10.57 0z"/><path d="m145.76 20.58h4.31v15.24h-4.31z"/><path d="m167.65 20.58v15.24h-3.55l-6.73-8.12v8.12h-4.23v-15.24h3.56l6.73 8.12v-8.12z"/><path d="m170.7 20.58h4.3v15.24h-4.3z"/><path d="m190.33 32.49v3.33h-12.24v-15.24h12v3.33h-7.69v2.57h6.77v3.22h-6.77v2.79z"/><path d="m192.72 20.58h4.28v11.82h7.27v3.42h-11.55z"/><path d="m216.4 32.86h-6.4l-1.2 3h-4.4l6.73-15.24h4.25l6.75 15.24h-4.53zm-1.26-3.18-2-4.88-2 4.88z"/></g></svg>