<svg viewBox="0 0 187.96 55.44" xmlns="http://www.w3.org/2000/svg"><g fill="#418ca3"><path d="m57.42 2.63v50.17h-11.22v2.64h13.86v-55.44h-60.06v55.44h13.86v-2.64h-11.22v-50.17z" fill-rule="evenodd"/><path d="m29.07 27.81v-5.28s-2.7-1.26-5.7-2.54a11 11 0 0 0 -5.31 3.53l-.37 6.61 5.56 1.73z"/><path d="m16.07 43.9 5.23 1.81 3.36-5.29-2.36-7.03-4.96-1.53-3.83 5.03z"/><path d="m15.89 30.6.47-6s-3.36 2.4-4.28 8.81a7.79 7.79 0 0 0 .51 2.17z"/><path d="m14.67 46.14v-1.67l-2.73-7.42s-.34 6.18 2.73 9.09z"/><path d="m21.27 47.6-5.2-2.2-.24 2.78a20.32 20.32 0 0 0 6.19 5c1.1-.78 1.9-1.44 1.9-1.44z"/><path d="m30.73 27.81 5.83 4.05 5.55-1.73-.37-6.61a11 11 0 0 0 -5.31-3.52c-3 1.28-5.7 2.54-5.7 2.54z"/><path d="m35.14 40.42 3.37 5.29 5.23-1.81 2.56-7.01-3.83-5.03-4.96 1.53z"/><path d="m47.22 35.58a7.92 7.92 0 0 0 .5-2.17c-.9-6.46-4.28-8.83-4.28-8.83l.47 6z"/><path d="m47.86 37.05-2.73 7.42v1.67c3.07-2.91 2.73-9.09 2.73-9.09z"/><path d="m38.53 47.6-2.65 4.09s.8.66 1.9 1.44a20.32 20.32 0 0 0 6.19-5l-.23-2.78z"/><path d="m29.9 53h-4.85l-1.24 1.19a12.8 12.8 0 0 0 6 1.18h.19a12.73 12.73 0 0 0 6-1.18l-1.25-1.19z"/><path d="m25.89 51.52h4.01 4.02l3.11-4.82-3.29-5.37h-3.84-3.84l-3.28 5.37z"/><path d="m34.44 19a20.34 20.34 0 0 0 -4.54-.72 20.2 20.2 0 0 0 -4.53.72l4.53 2.07z"/><path d="m33.57 39.64 2.15-6.3-5.82-4.02-5.82 4.02 2.15 6.3h3.67z"/><path d="m90.24 37.59a5.06 5.06 0 0 1 -1.87 1.41 5.92 5.92 0 0 1 -2.4.49 6.86 6.86 0 0 1 -4.35-1.41 17.76 17.76 0 0 1 -2.32-2.08 8.41 8.41 0 0 1 -3.53-1.42 7.65 7.65 0 0 1 -2.41-2.74 7.84 7.84 0 0 1 -.86-3.64 7.69 7.69 0 0 1 1.1-4.07 7.82 7.82 0 0 1 3-2.84 9.76 9.76 0 0 1 8.69 0 7.79 7.79 0 0 1 -1 14.27 2.7 2.7 0 0 0 .86.68 2.17 2.17 0 0 0 .92.19 3.12 3.12 0 0 0 2.31-1.06zm-12.84-7.11a3.92 3.92 0 0 0 1.49 1.52 4.25 4.25 0 0 0 4.18 0 3.89 3.89 0 0 0 1.48-1.53 5.08 5.08 0 0 0 0-4.56 3.89 3.89 0 0 0 -1.48-1.53 4.25 4.25 0 0 0 -4.18 0 3.92 3.92 0 0 0 -1.49 1.53 5.08 5.08 0 0 0 0 4.56z"/><path d="m93.47 34.28a7 7 0 0 1 -1.88-5.28v-8.42h4.31v8.32c0 2.44 1 3.66 2.9 3.66s2.87-1.22 2.87-3.66v-8.32h4.25v8.42a7.07 7.07 0 0 1 -1.92 5.28 8.47 8.47 0 0 1 -10.57 0z"/><path d="m108.84 20.58h4.31v15.24h-4.31z"/><path d="m130.73 20.58v15.24h-3.55l-6.73-8.12v8.12h-4.23v-15.24h3.55l6.73 8.12v-8.12z"/><path d="m133.78 20.58h4.31v15.24h-4.31z"/><path d="m151.38 27.87h3.81v6.32a9.94 9.94 0 0 1 -3 1.44 12.17 12.17 0 0 1 -3.4.5 9.11 9.11 0 0 1 -4.31-1 7.65 7.65 0 0 1 -3-2.82 8.24 8.24 0 0 1 0-8.19 7.59 7.59 0 0 1 3-2.83 9.36 9.36 0 0 1 4.38-1 9.72 9.72 0 0 1 3.83.72 7.38 7.38 0 0 1 2.83 2.07l-2.74 2.48a4.86 4.86 0 0 0 -3.71-1.7 4.11 4.11 0 0 0 -4.35 4.36 4.62 4.62 0 0 0 .54 2.25 3.81 3.81 0 0 0 1.55 1.53 4.46 4.46 0 0 0 2.24.56 5.57 5.57 0 0 0 2.33-.5z"/><path d="m161.28 35.11a7.82 7.82 0 0 1 -3-2.84 8.08 8.08 0 0 1 0-8.14 7.82 7.82 0 0 1 3-2.84 9.76 9.76 0 0 1 8.69 0 7.81 7.81 0 0 1 0 13.82 9.76 9.76 0 0 1 -8.69 0zm6.44-3.1a3.89 3.89 0 0 0 1.48-1.53 5 5 0 0 0 0-4.56 3.89 3.89 0 0 0 -1.48-1.53 4.25 4.25 0 0 0 -4.18 0 3.92 3.92 0 0 0 -1.49 1.53 5.08 5.08 0 0 0 0 4.56 3.92 3.92 0 0 0 1.49 1.52 4.25 4.25 0 0 0 4.18 0z"/><path d="m176.37 20.58h4.31v11.82h7.32v3.42h-11.63z"/></g></svg>