<svg viewBox="0 0 272.92 63.33" xmlns="http://www.w3.org/2000/svg"><g fill="#ce9509"><path d="m57.42 2.63v50.17h-11.22v2.64h13.86v-55.44h-60.06v55.44h13.86v-2.64h-11.22v-50.17z" fill-rule="evenodd"/><path d="m37.07 29.14c-.08.73-.13 1.26-.2 1.94l1.31-.87a12.47 12.47 0 0 0 0 2.22 10.2 10.2 0 0 0 .87 3 63.12 63.12 0 0 1 3.37 7.9c.44 1.1.94 2.17 1.33 3.3a2 2 0 0 1 -.66 2.37 2.75 2.75 0 0 1 -2.91.28 2.58 2.58 0 0 1 -1-1.31 1.21 1.21 0 0 0 -.94-.88 6.68 6.68 0 0 1 -3.14-2c-.51-.52-1-1.05-1.48-1.61a.74.74 0 0 0 -1-.17 3.43 3.43 0 0 0 -1.91 3.75 29.38 29.38 0 0 0 1.07 4.15 16 16 0 0 1 1 6.35 7.33 7.33 0 0 1 -3 5.45 2.9 2.9 0 0 1 -.45.32l-.4-.46-7.62-8c-1.37-1.47-4.53-4.9-4.53-4.9a23.61 23.61 0 0 1 1.36-8.17 13.17 13.17 0 0 1 6.9-7.17 27.93 27.93 0 0 1 7.96-2.23 2.13 2.13 0 0 0 1-.54c.63-.59 1.17-1.29 1.79-1.89a9.39 9.39 0 0 1 1.28-.83z"/><path d="m18.76 9.35h3.56v16.58h-3.56z"/><path d="m37.71 9.35h3.56v16.58h-3.56z"/><path d="m28.44 5.07h3.56v17.42h-3.56z"/><path d="m90.24 37.62a5 5 0 0 1 -1.87 1.43 5.92 5.92 0 0 1 -2.4.49 6.86 6.86 0 0 1 -4.35-1.41 17.76 17.76 0 0 1 -2.32-2.13 8.41 8.41 0 0 1 -3.53-1.42 7.65 7.65 0 0 1 -2.41-2.74 7.81 7.81 0 0 1 -.86-3.64 7.62 7.62 0 0 1 4.13-6.9 9.68 9.68 0 0 1 8.69 0 7.59 7.59 0 0 1 3 2.83 7.79 7.79 0 0 1 -4.05 11.47 2.8 2.8 0 0 0 .86.67 2.17 2.17 0 0 0 .92.2 3.13 3.13 0 0 0 2.31-1.07zm-12.84-7.11a3.92 3.92 0 0 0 1.49 1.49 4.25 4.25 0 0 0 4.18 0 3.89 3.89 0 0 0 1.48-1.53 5.06 5.06 0 0 0 0-4.55 3.92 3.92 0 0 0 -1.48-1.54 4.31 4.31 0 0 0 -4.18 0 3.94 3.94 0 0 0 -1.49 1.62 5.06 5.06 0 0 0 0 4.55z"/><path d="m93.47 34.31a7 7 0 0 1 -1.88-5.25v-8.45h4.31v8.32c0 2.44 1 3.66 2.9 3.66s2.87-1.22 2.87-3.66v-8.32h4.25v8.45a7 7 0 0 1 -1.92 5.25 8.47 8.47 0 0 1 -10.57 0z"/><path d="m108.84 20.61h4.31v15.25h-4.31zm2.94-4.55h4.14l-4.1 3.31h-3z"/><path d="m130.73 20.61v15.25h-3.55l-6.73-8.13v8.13h-4.23v-15.25h3.55l6.73 8.12v-8.12z"/><path d="m137 24h-4.69v-3.39h13.69v3.39h-4.66v11.86h-4.34z"/><path d="m149.13 34.31a7 7 0 0 1 -1.89-5.25v-8.45h4.32v8.32q0 3.66 2.89 3.66t2.88-3.66v-8.32h4.25v8.45a7 7 0 0 1 -1.89 5.25 8.46 8.46 0 0 1 -10.56 0z"/><path d="m175.06 21.29a5.17 5.17 0 0 1 3.18 5 5.15 5.15 0 0 1 -3.18 4.93 8.64 8.64 0 0 1 -3.59.69h-2.66v4h-4.31v-15.3h7a8.81 8.81 0 0 1 3.56.68zm-1.85 6.61a2.06 2.06 0 0 0 .67-1.65 2.1 2.1 0 0 0 -.67-1.66 3 3 0 0 0 -2-.58h-2.4v4.46h2.4a3 3 0 0 0 2-.57z"/><path d="m180.33 20.61h4.31v11.83h7.28v3.42h-11.59z"/><path d="m205.86 32.52v3.34h-12.24v-15.25h12v3.33h-7.69v2.57h6.77v3.23h-6.77v2.78z"/><path d="m225.16 21.29a5.17 5.17 0 0 1 3.18 5 5.15 5.15 0 0 1 -3.18 4.93 8.61 8.61 0 0 1 -3.59.69h-2.66v4h-4.31v-15.3h7a8.78 8.78 0 0 1 3.56.68zm-1.85 6.61a2.07 2.07 0 0 0 .68-1.65 2.1 2.1 0 0 0 -.68-1.66 3 3 0 0 0 -2-.58h-2.4v4.46h2.4a3 3 0 0 0 2-.57z"/><path d="m230.43 20.61h4.32v11.83h7.25v3.42h-11.57z"/><path d="m245.32 34.31a7 7 0 0 1 -1.88-5.25v-8.45h4.31v8.32q0 3.66 2.9 3.66c1.92 0 2.87-1.22 2.87-3.66v-8.32h4.25v8.45a7 7 0 0 1 -1.88 5.25 8.47 8.47 0 0 1 -10.57 0z"/><path d="m262.46 35.7a8.7 8.7 0 0 1 -2.84-1.22l1.38-3.18a9.69 9.69 0 0 0 5 1.51c1.66 0 2.48-.42 2.48-1.24a1 1 0 0 0 -.7-1 12.66 12.66 0 0 0 -2.28-.67 21 21 0 0 1 -2.87-.79 4.82 4.82 0 0 1 -2-1.37 3.66 3.66 0 0 1 -.83-2.52 4.38 4.38 0 0 1 .77-2.52 5 5 0 0 1 2.35-1.7 9.31 9.31 0 0 1 3.72-.66 13.37 13.37 0 0 1 3 .34 9.42 9.42 0 0 1 2.57 1l-1.33 3.2a8.9 8.9 0 0 0 -4.22-1.17 3.6 3.6 0 0 0 -1.88.38 1.14 1.14 0 0 0 -.59 1 1 1 0 0 0 .7.91 12.11 12.11 0 0 0 2.25.64 20.43 20.43 0 0 1 2.88.79 5.15 5.15 0 0 1 2 1.35 3.62 3.62 0 0 1 .84 2.52 4.27 4.27 0 0 1 -.76 2.48 5.26 5.26 0 0 1 -2.29 1.78 9.27 9.27 0 0 1 -3.7.66 13.86 13.86 0 0 1 -3.65-.52z"/></g></svg>